<?xml version="1.0" encoding="UTF-8"?><svg id="Layer_2" xmlns="http://www.w3.org/2000/svg" xmlns:xlink="http://www.w3.org/1999/xlink" viewBox="0 0 283.06 246.18"><defs><style>.cls-1{fill:url(#linear-gradient);}.cls-2{fill:#f3d5b5;}.cls-3{fill:#bda48a;}.cls-4{fill:#c9ad8f;}.cls-5{fill:#d69898;}</style><linearGradient id="linear-gradient" x1="163.89" y1="123.79" x2="92.21" y2="112.48" gradientTransform="translate(0 251.36) scale(1 -1)" gradientUnits="userSpaceOnUse"><stop offset="0" stop-color="#e6bc91"/><stop offset="1" stop-color="#f3d5b5"/></linearGradient></defs><polygon points="96.97 141.44 84.24 142.14 76.3 145.62 66.34 152.26 59.04 159.37 49.89 169.51 41.87 179.1 33.71 189.15 27.7 199.58 22 206.63 17.07 214.44 13.63 221.7 11.77 227.28 8.14 235.18 5.44 242.62 3.95 246.4 119.41 246.4 122.97 238.23 128.62 233.08 131.51 226.93 135.52 220.28 141.55 202.08 139.04 190.41 131 174.84 127.62 161.41 119.71 149.11 107.53 142.96 96.97 141.44"/><polygon points="151.33 177.67 160.75 185.01 168.69 189.22 175.84 192.36 182.98 193.96 187.73 199.1 190.26 209.12 191 218.07 186.56 246.39 165.05 246.4 161.8 238.22 157.26 217.46 154.16 202.26 151.93 189.65 151.33 177.67"/><path d="m238.19,167.12l6.36,3.04,4.31,1.91,4.24,2.05,3.39,3.32,3.75,3.75,4.24,4.24,3.18,5.16,2.33,4.66,1.77,4.74,2.4,7.21,1.77,6.79,1.84,9.33,1.06,6.36s1.14,5.97,1.27,7.99-.22,8.02-.22,8.02l-24.95.23-1.91-5.78,2.05-9.33,5.8-5.58,2.69-5.94-5.16-7.49-5.8-9.61-5.51-7.92-4.95-11.59-3.25-8.06-.71-7.49h.01Z"/><path class="cls-4" d="m121.91,23.46l2.89-5.26,2.12-5.18,2.61-4.56,4.35-3.58s-5.4,1.84-6.65,2.14c-1,.24-3.25,1.1-4.15,1.6-1.32.73-4.96,3.02-4.96,3.02l-4.56,3.79-3.83,3.95-5.56,6.09-4.97,5.54-4.2,6.77-2.65,5.5-1.87,5.09-1.59,8.11-2.04,8.52-.53,5.62.04,6.77,1.54,7.61,3.33,5.06,2.1,3.15,2.67,3.03,1.77,3.09,1.44,3.81-.92,4.11-2.97,4.67-3.44,4.67-1.84,4.05-1.46,5.75-.57,5.85,2.28,7.17,3.21,2.97,8.53,2.6,8.09,3.13,5.18,2.75,3.95,4.3,3.39,6.73,1.62,7.65.77,6.18,3.09,7.42,3.94,7.27,3.01,6.8,2.16,7.11-2.78,10.44-3.96,11.79-5.49,7.11-3.96,7.56-2.89,5.19h47.85l-1.41-12.57-1.36-10.13-1.97-11.47-2.88-12.42-1.35-10.53-1.98-9.63-8.55-63.35-11.44-37.71-6.02-26.12-4.99-17.9-2.15-11.14v.02Z"/><path class="cls-4" d="m121.6,24.03l1.06-2.19,1.78-3.18.98-2.23.76-2.01.87-1.97,1.48-2.22.6-1.22.76-1.21,1.02-1.36.79-.79,5.19-1.8,7.67-2.01,5.67-1.35L156.31,0l5.73-.25,8.28.16,6.25,1.06c3.17.54,6.21,1.65,8.97,3.29l1.71,1.01c1.82,1.08,3.54,2.33,5.12,3.74l1.25,1.11c2.42,2.15,4.54,4.62,6.31,7.33l1.62,2.49,3.5,6.88,4.81,14.47,3.26,10.77,3.35,14.02,3.44,14.75,2.18,22,2.1,12.39,1.9,11.89,3.9,12.34,2.8,11.94,3.5,10.29,4.9,8.79,6.2,15.22,7.76,13.74,4.43,5.03c1.72,1.96,3.22,4.1,4.45,6.4l1.28,2.39c.42.78.71,1.61.86,2.48h0c.8,4.45.14,9.04-1.9,13.08h0l-5.77,5.14-.12.3c-1.3,3.19-1.9,6.63-1.74,10.07l.07,1.61-71.65.51.63-6.08,1.15-6.61.84-8.81s.28-9.25.02-9.82-.97-6.34-.97-6.34h0c-1.97-3.39-3.03-5.92-3.41-9.23l-.27-2.35-1.1-6.1-2.07-5.59-2.68-10.96-3.15-13.05-2.21-11.66-.7-14.8-.82-13.87-5.01-14.34-2.91-10.37-3.09-12.09-.23-16.58-5.84-14.6-5.84-12.73-11.68-8.76-9.69-3.39-4.44-4.26h0Z"/><polygon class="cls-3" points="121.6 23.2 117.33 24.53 110.88 30 106.91 35.87 106.04 40.39 106.2 45.23 104.37 49.27 102.63 54.19 101.84 59.66 103.42 64.58 104.53 69.5 103.5 73.94 102.31 77.11 101.04 81.87 100.57 87.1 101.99 91.94 129.99 86.71 130.62 55.46 126.02 42.69 121.58 31.11 121.6 23.2"/><polygon class="cls-3" points="101.4 96.2 101.88 102.13 102.97 107.93 104.2 112.91 106.04 117.88 108.36 123.54 111.43 128.32 114.49 132.75 119.2 136.5 123.84 139.16 127.18 141.41 131.77 144.83 136.03 147.04 139.79 150.97 142.9 154.49 144.86 158.74 146.58 163.49 147.89 166.19 149.94 172.17 154.01 181.3 156.38 183.24 161.89 184.94 159.01 167.66 149.86 133.01 135.88 123.18 122.24 111.5 106.49 97.6 101.4 96.2"/><path class="cls-2" d="m113.57,28.46l-2.44,2.94c-.42.5-.75,1.07-.97,1.68l-.63,1.7c-.14.37-.23.76-.27,1.15l-.29,2.58c-.02.17-.03.35-.03.52v2.5c0,.25-.03.51-.08.75l-.71,3.42-1.04,2.81-1.07,2.78-1.04,3.57-.48,2.6c-.1.57-.12,1.15-.05,1.72l.28,2.3c.04.36.12.72.23,1.06l.64,2.03.86,2.29.05.12c.31.77.47,1.6.47,2.43v1.52l.03,1.75v.29l-.23.99c-.17.38-.38.74-.62,1.09l-2.03,2.93-1.63,2.89c-.19.33-.34.68-.47,1.03l-1.15,3.25-.55,2.15c-.15.58-.23,1.18-.25,1.78l-.07,2.44c-.02.61.03,1.23.15,1.83l.64,3.34,1.7,5.31,1.26,4.14.51,3.13c.12.75.31,1.5.56,2.22l1.52,4.44c.15.43.32.86.51,1.27l1.63,3.47c.27.57.59,1.12.96,1.64l1.95,3.08,1.99,3.4,1.43,2.07c.39.56.84,1.06,1.35,1.51l1.5,1.32c.2.18.42.34.64.49l1.79,1.2c1.07.53,2.24.84,3.44.9l3.57-.3,5.49-.76,5.51-1.31,5.19-1.25,6.44-2.4,7.19-3.49,6.23-3.58,5.71-3.75,2.65-2.2h0c1.32-.86,1.8-2.56,1.12-3.98l-3.07-6.48-2.85-8.91-1.5-7.21-1.65-8.41-.74-8.73-.53-8.5-.65-5.24c-.28-2.23-.84-4.41-1.68-6.5l-1.22-3.03-2.05-5.06-5.57-6.93-4.26-4.07c-1.34-1.28-2.86-2.35-4.51-3.18l-5.63-2.84-6.89-2.71-6.12-1.94-.71-.21c-1-.29-2.07-.2-2.99.28l-1.91.97c-.65.33-1.26.76-1.79,1.26l-2.49,2.36c-.08.07-.15.15-.22.24l-.06.04Z"/><path class="cls-2" d="m122.14,136.1l1.87.68c1.51.55,2.92,1.34,4.18,2.35l.76.61,4.53,3.05,2.96,1.96,3.14,2.35,1.83,2.13,1.16,1.38c.87,1.04,1.54,2.24,1.97,3.54h0c.18.55.41,1.09.67,1.6l3.67,7.11,3.11,7.91,3.36,11.12,1.58,2.05,4.06,2.96,3.76,2.15,5.41,2.45,2.81,1.35,4.46,1.95,5.66,1.3-1.1-5.06-.7-7.71-.4-4.36-.7-3.11-2.3-7.06-1.4-4.41-.05-4.51-1.53-5.63-.63-4.67v-6.14l.79-5.88.79-4.15-.73-9.76-2.18-9.51-38.04,12.23-11.01,5.04-1.7,4.66-.06.03Z"/><path class="cls-1" d="m122.67,136.3l1.02.37c.85.32,2.95,1.25,3.85,1.37l7.26.25c.29.04,2.33.06,2.62.06l9.52-.43,9.85-.76,5.96-1.26c2.02-.22,6.61-.96,8.52-1.6l4.5-1.64-.18-2.46-.16-2.13-.33-4.39-1.41-6.14-12.31,8.16c-.26.17-.53.33-.81.46l-8.69,4.2-7.93,3.3c-.63.26-1.28.46-1.95.59l-8.53,1.68c-.56.11-1.12.17-1.69.18l-9.09.19h-.02Z"/><path class="cls-5" d="m113.13,104.96c-.19-.19-.66-.5-.82-.72-.15-.21-.28-.73-.27-.99.01-.4.15-1.2.29-1.58.15-.41.54-1.21.8-1.55.34-.44,1.14-1.21,1.57-1.55.29-.23.89-.66,1.21-.83s.97-.43,1.31-.52c.61-.17,1.86-.43,2.49-.48.75-.06,2.28-.08,3.03.03,1.08.15,3.19.72,4.24,1.01,1.26.36,3.81,1.01,5.04,1.48.77.29,2.27,1.01,2.99,1.4s2.55,1.47,3.3,1.91c.16.09.17.31.03.43-.51.42-1.57,1.28-2.01,1.61-.85.64-2.59,1.85-3.49,2.42-1,.63-3.05,1.79-4.07,2.39-.83.49-2.4,1.64-3.29,2.02-1.04.44-3.25.97-4.37,1.12-.82.11-2.49.36-3.32.25-.75-.1-2.25-.51-2.87-.95-.43-.3-1.13-1.12-1.4-1.57s-.66-1.47-.67-2c0-.28.21-.81.32-1.07.09-.21.34-.61.42-.82.07-.17.15-.55.1-.73-.06-.22-.43-.54-.59-.7h.03Z"/></svg>