<?xml version="1.0" encoding="UTF-8"?><svg id="Layer_14" xmlns="http://www.w3.org/2000/svg" xmlns:xlink="http://www.w3.org/1999/xlink" viewBox="0 0 64 64"><defs><style>.cls-1{fill:url(#linear-gradient);}.cls-2{fill:#f3d5b5;}.cls-3{fill:#bda48a;}.cls-4{fill:#c9ad8f;}.cls-5{fill:#d69898;}</style><linearGradient id="linear-gradient" x1="37.06" y1="32.99" x2="20.48" y2="35.61" gradientUnits="userSpaceOnUse"><stop offset="0" stop-color="#e6bc91"/><stop offset="1" stop-color="#f3d5b5"/></linearGradient></defs><polygon points="21.55 36.05 18.6 36.21 16.77 36.98 14.46 38.44 12.77 40.01 10.64 42.25 8.79 44.36 6.9 46.58 5.5 48.88 4.18 50.44 3.04 52.16 2.24 53.76 1.81 54.99 .97 56.73 .34 58.37 0 59.21 26.76 59.21 27.58 57.4 28.89 56.27 29.56 54.91 30.49 53.45 31.89 49.43 31.3 46.86 29.44 43.42 28.66 40.46 26.82 37.75 24 36.39 21.55 36.05"/><polygon points="34.15 44.05 36.33 45.67 38.18 46.59 39.83 47.29 41.49 47.64 42.59 48.77 43.17 50.98 43.35 52.96 42.32 59.21 37.33 59.21 36.58 57.4 35.53 52.82 34.81 49.47 34.29 46.69 34.15 44.05"/><path d="m54.28,41.72l1.47.67,1,.42.98.45.79.73.87.83.98.94.74,1.14.54,1.03.41,1.04.56,1.59.41,1.5.43,2.06.25,1.4s.26,1.32.29,1.76c.03.44-.05,1.77-.05,1.77l-5.78.05-.44-1.27.47-2.06,1.34-1.23.62-1.31-1.2-1.65-1.34-2.12-1.28-1.75-1.15-2.56-.75-1.78-.16-1.65Z"/><path class="cls-4" d="m27.33,10.03l.67-1.16.49-1.14.6-1.01,1.01-.79s-1.25.41-1.54.47c-.23.05-.75.24-.96.35-.31.16-1.15.67-1.15.67l-1.06.84-.89.87-1.29,1.34-1.15,1.22-.97,1.49-.61,1.21-.43,1.12-.37,1.79-.47,1.88-.12,1.24v1.49s.37,1.68.37,1.68l.77,1.12.49.7.62.67.41.68.33.84-.21.91-.69,1.03-.8,1.03-.43.89-.34,1.27-.13,1.29.53,1.58.74.66,1.98.57,1.87.69,1.2.61.91.95.78,1.48.38,1.69.18,1.36.72,1.64.91,1.6.7,1.5.5,1.57-.64,2.3-.92,2.6-1.27,1.57-.92,1.67-.67,1.14h11.09s-.33-2.77-.33-2.77l-.32-2.23-.46-2.53-.67-2.74-.31-2.32-.46-2.12-1.98-13.97-2.65-8.32-1.39-5.76-1.16-3.95-.5-2.46Z"/><path class="cls-4" d="m27.26,10.15l.25-.48.41-.7.23-.49.18-.44.2-.43.34-.49.14-.27.18-.27.24-.3.18-.18,1.2-.4,1.78-.44,1.31-.3,1.41-.11,1.33-.06,1.92.03,1.45.23c.73.12,1.44.36,2.08.73l.4.22c.42.24.82.51,1.19.82l.29.24c.56.47,1.05,1.02,1.46,1.62l.38.55.81,1.52,1.11,3.19.75,2.38.78,3.09.8,3.25.51,4.85.49,2.73.44,2.62.9,2.72.65,2.63.81,2.27,1.13,1.94,1.44,3.36,1.8,3.03,1.03,1.11c.4.43.75.91,1.03,1.41l.3.53c.1.17.16.36.2.55h0c.19.98.03,1.99-.44,2.88h0s-1.34,1.13-1.34,1.13l-.03.07c-.3.7-.44,1.46-.4,2.22l.02.35-16.6.11.15-1.34.27-1.46.19-1.94s.06-2.04,0-2.17-.22-1.4-.22-1.4h0c-.46-.75-.7-1.31-.79-2.04l-.06-.52-.26-1.35-.48-1.23-.62-2.42-.73-2.88-.51-2.57-.16-3.27-.19-3.06-1.16-3.16-.68-2.29-.72-2.67-.05-3.66-1.35-3.22-1.35-2.81-2.71-1.93-2.25-.75-1.03-.94Z"/><polygon class="cls-3" points="27.26 9.97 26.27 10.26 24.78 11.47 23.86 12.77 23.66 13.76 23.69 14.83 23.27 15.72 22.87 16.81 22.68 18.01 23.05 19.1 23.31 20.18 23.07 21.16 22.79 21.86 22.5 22.91 22.39 24.07 22.72 25.14 29.21 23.98 29.35 17.09 28.29 14.27 27.26 11.72 27.26 9.97"/><polygon class="cls-3" points="22.58 26.07 22.69 27.38 22.95 28.66 23.23 29.76 23.66 30.86 24.19 32.11 24.91 33.16 25.62 34.14 26.71 34.96 27.78 35.55 28.56 36.05 29.62 36.8 30.61 37.29 31.48 38.16 32.2 38.93 32.65 39.87 33.05 40.92 33.36 41.51 33.83 42.83 34.77 44.85 35.32 45.28 36.6 45.65 35.93 41.84 33.81 34.19 30.57 32.03 27.41 29.45 23.76 26.38 22.58 26.07"/><path class="cls-2" d="m25.4,11.13l-.57.65c-.1.11-.17.24-.23.37l-.15.37c-.03.08-.05.17-.06.25l-.07.57s0,.08,0,.12v.55c0,.06,0,.11-.02.17l-.16.75-.24.62-.25.61-.24.79-.11.57c-.02.13-.03.25-.01.38l.07.51c.01.08.03.16.05.23l.15.45.2.5v.03c.08.17.12.35.12.54v.34s0,.39,0,.39v.06s-.05.22-.05.22c-.04.08-.09.16-.14.24l-.47.65-.38.64c-.04.07-.08.15-.11.23l-.27.72-.13.47c-.03.13-.05.26-.06.39l-.02.54c0,.14,0,.27.03.4l.15.74.39,1.17.29.91.12.69c.03.17.07.33.13.49l.35.98c.03.1.07.19.12.28l.38.77c.06.13.14.25.22.36l.45.68.46.75.33.46c.09.12.19.23.31.33l.35.29s.1.08.15.11l.41.26c.25.12.52.18.8.2l.83-.07,1.27-.17,1.28-.29,1.2-.28,1.49-.53,1.67-.77,1.44-.79,1.32-.83.61-.49h0c.31-.19.42-.57.26-.88l-.71-1.43-.66-1.97-.35-1.59-.38-1.85-.17-1.93-.12-1.87-.15-1.16c-.06-.49-.19-.97-.39-1.43l-.28-.67-.47-1.12-1.29-1.53-.99-.9c-.31-.28-.66-.52-1.04-.7l-1.3-.63-1.6-.6-1.42-.43-.17-.05c-.23-.06-.48-.04-.69.06l-.44.21c-.15.07-.29.17-.42.28l-.58.52s-.04.03-.05.05Z"/><path class="cls-2" d="m27.39,34.88l.43.15c.35.12.68.3.97.52l.18.14,1.05.67.69.43.73.52.42.47.27.3c.2.23.36.5.46.78h0c.04.12.09.24.16.35l.85,1.57.72,1.75.78,2.45.37.45.94.65.87.48,1.25.54.65.3,1.03.43,1.31.29-.26-1.12-.16-1.7-.09-.96-.16-.69-.53-1.56-.33-.97v-.99s-.37-1.24-.37-1.24l-.15-1.03v-1.35l.18-1.3.18-.91-.17-2.15-.51-2.1-8.82,2.7-2.55,1.11-.4,1.03Z"/><path class="cls-1" d="m27.51,34.92l.24.08c.2.07.68.28.89.3l1.68.05c.07,0,.54.01.61.01l2.21-.1,2.28-.17,1.38-.28c.47-.05,1.53-.21,1.97-.35l1.04-.36-.04-.54-.04-.47-.08-.97-.33-1.35-2.85,1.8c-.06.04-.12.07-.19.1l-2.01.93-1.84.73c-.15.06-.3.1-.45.13l-1.98.37c-.13.02-.26.04-.39.04l-2.11.04Z"/><path class="cls-5" d="m25.3,28.01s-.15-.11-.19-.16c-.03-.05-.06-.16-.06-.22,0-.09.04-.26.07-.35.04-.09.12-.27.19-.34.08-.1.26-.27.36-.34.07-.05.21-.15.28-.18s.23-.09.3-.11c.14-.04.43-.09.58-.11.17-.01.53-.02.7,0,.25.03.74.16.98.22.29.08.88.22,1.17.33.18.06.53.22.69.31s.59.32.76.42c.04.02.04.07,0,.09-.12.09-.36.28-.46.35-.2.14-.6.41-.81.53-.23.14-.71.4-.94.53-.19.11-.56.36-.76.45-.24.1-.75.21-1.01.25-.19.03-.58.08-.77.06-.17-.02-.52-.11-.66-.21-.1-.07-.26-.25-.32-.35s-.15-.32-.16-.44c0-.06.05-.18.08-.24.02-.05.08-.13.1-.18.02-.04.03-.12.02-.16-.01-.05-.1-.12-.14-.15Z"/></svg>